<mxfile host="app.diagrams.net" modified="2024-01-18T19:40:16.959Z" agent="Mozilla/5.0 (Windows NT 10.0; Win64; x64) AppleWebKit/537.36 (KHTML, like Gecko) Chrome/120.0.0.0 Safari/537.36" etag="9mfacLITvQMa10u4f28k" version="22.1.21" type="github">
  <diagram name="Page-1" id="2YBvvXClWsGukQMizWep">
    <mxGraphModel dx="862" dy="322" grid="0" gridSize="10" guides="1" tooltips="1" connect="1" arrows="1" fold="1" page="1" pageScale="1" pageWidth="2336" pageHeight="1654" math="0" shadow="0">
      <root>
        <mxCell id="0" />
        <mxCell id="1" parent="0" />
        <mxCell id="w-5hcPKno8KpbsTwTfAp-21" value="" style="shape=umlLifeline;perimeter=lifelinePerimeter;whiteSpace=wrap;html=1;container=1;dropTarget=0;collapsible=0;recursiveResize=0;outlineConnect=0;portConstraint=eastwest;newEdgeStyle={&quot;curved&quot;:0,&quot;rounded&quot;:0};participant=umlActor;" vertex="1" parent="1">
          <mxGeometry x="143" y="200" width="20" height="1079" as="geometry" />
        </mxCell>
        <mxCell id="w-5hcPKno8KpbsTwTfAp-22" value="Main Window" style="shape=umlLifeline;perimeter=lifelinePerimeter;whiteSpace=wrap;html=1;container=1;dropTarget=0;collapsible=0;recursiveResize=0;outlineConnect=0;portConstraint=eastwest;newEdgeStyle={&quot;curved&quot;:0,&quot;rounded&quot;:0};" vertex="1" parent="1">
          <mxGeometry x="520" y="200" width="100" height="1076" as="geometry" />
        </mxCell>
        <mxCell id="w-5hcPKno8KpbsTwTfAp-23" value="Json file reader" style="shape=umlLifeline;perimeter=lifelinePerimeter;whiteSpace=wrap;html=1;container=1;dropTarget=0;collapsible=0;recursiveResize=0;outlineConnect=0;portConstraint=eastwest;newEdgeStyle={&quot;curved&quot;:0,&quot;rounded&quot;:0};" vertex="1" parent="1">
          <mxGeometry x="689" y="200" width="100" height="1073" as="geometry" />
        </mxCell>
        <mxCell id="w-5hcPKno8KpbsTwTfAp-24" value="Json file Writer" style="shape=umlLifeline;perimeter=lifelinePerimeter;whiteSpace=wrap;html=1;container=1;dropTarget=0;collapsible=0;recursiveResize=0;outlineConnect=0;portConstraint=eastwest;newEdgeStyle={&quot;curved&quot;:0,&quot;rounded&quot;:0};" vertex="1" parent="1">
          <mxGeometry x="855" y="200" width="100" height="1077" as="geometry" />
        </mxCell>
        <mxCell id="w-5hcPKno8KpbsTwTfAp-25" value="Json File" style="shape=umlLifeline;perimeter=lifelinePerimeter;whiteSpace=wrap;html=1;container=1;dropTarget=0;collapsible=0;recursiveResize=0;outlineConnect=0;portConstraint=eastwest;newEdgeStyle={&quot;curved&quot;:0,&quot;rounded&quot;:0};" vertex="1" parent="1">
          <mxGeometry x="1028" y="200" width="100" height="1079" as="geometry" />
        </mxCell>
        <mxCell id="w-5hcPKno8KpbsTwTfAp-26" value="Table View" style="shape=umlLifeline;perimeter=lifelinePerimeter;whiteSpace=wrap;html=1;container=1;dropTarget=0;collapsible=0;recursiveResize=0;outlineConnect=0;portConstraint=eastwest;newEdgeStyle={&quot;curved&quot;:0,&quot;rounded&quot;:0};" vertex="1" parent="1">
          <mxGeometry x="1211" y="200" width="100" height="1079" as="geometry" />
        </mxCell>
        <mxCell id="w-5hcPKno8KpbsTwTfAp-27" value="Modbus Protocol" style="shape=umlLifeline;perimeter=lifelinePerimeter;whiteSpace=wrap;html=1;container=1;dropTarget=0;collapsible=0;recursiveResize=0;outlineConnect=0;portConstraint=eastwest;newEdgeStyle={&quot;curved&quot;:0,&quot;rounded&quot;:0};" vertex="1" parent="1">
          <mxGeometry x="1391" y="200" width="100" height="1077" as="geometry" />
        </mxCell>
        <mxCell id="w-5hcPKno8KpbsTwTfAp-28" value="Register Reader" style="shape=umlLifeline;perimeter=lifelinePerimeter;whiteSpace=wrap;html=1;container=1;dropTarget=0;collapsible=0;recursiveResize=0;outlineConnect=0;portConstraint=eastwest;newEdgeStyle={&quot;curved&quot;:0,&quot;rounded&quot;:0};" vertex="1" parent="1">
          <mxGeometry x="1565" y="200" width="100" height="1069" as="geometry" />
        </mxCell>
        <mxCell id="w-5hcPKno8KpbsTwTfAp-29" value="Serial Ports" style="shape=umlLifeline;perimeter=lifelinePerimeter;whiteSpace=wrap;html=1;container=1;dropTarget=0;collapsible=0;recursiveResize=0;outlineConnect=0;portConstraint=eastwest;newEdgeStyle={&quot;curved&quot;:0,&quot;rounded&quot;:0};" vertex="1" parent="1">
          <mxGeometry x="1762" y="200" width="100" height="1069" as="geometry" />
        </mxCell>
        <mxCell id="w-5hcPKno8KpbsTwTfAp-30" value="Open Application" style="html=1;verticalAlign=bottom;endArrow=block;curved=0;rounded=0;" edge="1" parent="1" target="w-5hcPKno8KpbsTwTfAp-37">
          <mxGeometry width="80" relative="1" as="geometry">
            <mxPoint x="154.75925925925935" y="320.5" as="sourcePoint" />
            <mxPoint x="331" y="321" as="targetPoint" />
          </mxGeometry>
        </mxCell>
        <mxCell id="w-5hcPKno8KpbsTwTfAp-31" value="data_folder_exist()" style="html=1;verticalAlign=bottom;endArrow=block;curved=0;rounded=0;" edge="1" parent="1">
          <mxGeometry x="-0.429" y="2" width="80" relative="1" as="geometry">
            <mxPoint x="744" y="345" as="sourcePoint" />
            <mxPoint x="1075" y="346" as="targetPoint" />
            <mxPoint x="1" as="offset" />
          </mxGeometry>
        </mxCell>
        <mxCell id="w-5hcPKno8KpbsTwTfAp-34" value="Yes" style="html=1;verticalAlign=bottom;endArrow=open;dashed=1;endSize=8;curved=0;rounded=0;" edge="1" parent="1" source="w-5hcPKno8KpbsTwTfAp-39">
          <mxGeometry x="0.4343" y="-4" relative="1" as="geometry">
            <mxPoint x="738.5000000000005" y="393" as="sourcePoint" />
            <mxPoint x="365.5" y="393" as="targetPoint" />
            <mxPoint x="-1" as="offset" />
          </mxGeometry>
        </mxCell>
        <mxCell id="w-5hcPKno8KpbsTwTfAp-35" value="No" style="html=1;verticalAlign=bottom;endArrow=open;dashed=1;endSize=8;curved=0;rounded=0;" edge="1" parent="1">
          <mxGeometry x="0.4295" relative="1" as="geometry">
            <mxPoint x="734" y="439" as="sourcePoint" />
            <mxPoint x="365.8103448275863" y="439" as="targetPoint" />
            <mxPoint as="offset" />
          </mxGeometry>
        </mxCell>
        <mxCell id="w-5hcPKno8KpbsTwTfAp-36" value="create_data_folder()" style="html=1;verticalAlign=bottom;endArrow=block;curved=0;rounded=0;" edge="1" parent="1">
          <mxGeometry x="-0.6122" y="2" width="80" relative="1" as="geometry">
            <mxPoint x="365.5" y="549" as="sourcePoint" />
            <mxPoint x="904.5000000000005" y="549" as="targetPoint" />
            <mxPoint as="offset" />
          </mxGeometry>
        </mxCell>
        <mxCell id="w-5hcPKno8KpbsTwTfAp-37" value="Main Thread" style="shape=umlLifeline;perimeter=lifelinePerimeter;whiteSpace=wrap;html=1;container=1;dropTarget=0;collapsible=0;recursiveResize=0;outlineConnect=0;portConstraint=eastwest;newEdgeStyle={&quot;curved&quot;:0,&quot;rounded&quot;:0};" vertex="1" parent="1">
          <mxGeometry x="316" y="200" width="100" height="1086" as="geometry" />
        </mxCell>
        <mxCell id="w-5hcPKno8KpbsTwTfAp-40" value="" style="html=1;verticalAlign=bottom;endArrow=open;dashed=1;endSize=8;curved=0;rounded=0;" edge="1" parent="1" target="w-5hcPKno8KpbsTwTfAp-39">
          <mxGeometry x="0.4343" y="-4" relative="1" as="geometry">
            <mxPoint x="738.5000000000005" y="393" as="sourcePoint" />
            <mxPoint x="365.5" y="393" as="targetPoint" />
            <mxPoint x="-1" as="offset" />
          </mxGeometry>
        </mxCell>
        <mxCell id="w-5hcPKno8KpbsTwTfAp-39" value="" style="html=1;points=[[0,0,0,0,5],[0,1,0,0,-5],[1,0,0,0,5],[1,1,0,0,-5]];perimeter=orthogonalPerimeter;outlineConnect=0;targetShapes=umlLifeline;portConstraint=eastwest;newEdgeStyle={&quot;curved&quot;:0,&quot;rounded&quot;:0};" vertex="1" parent="1">
          <mxGeometry x="734" y="331" width="10" height="190" as="geometry" />
        </mxCell>
      </root>
    </mxGraphModel>
  </diagram>
</mxfile>
